{"asset":{"generator":"glTF-Transform v3.10.0","version":"2.0","extras":{"author":"Digital screen official (https://sketchfab.com/ck212575)","license":"CC-BY-4.0 (http://creativecommons.org/licenses/by/4.0/)","source":"https://sketchfab.com/3d-models/realistics-grass-03-2589c4f89dac4bbfab7f66be615f262e","title":"Realistics grass 03"}},"accessors":[{"type":"VEC3","componentType":5126,"count":7468,"max":[7.492199897766113,5.0632100105285645,4.097516059875488],"min":[-3.03330397605896,-5.816165924072266,-0.767304003238678],"bufferView":0,"byteOffset":0},{"type":"VEC3","componentType":5126,"count":7468,"bufferView":0,"byteOffset":12},{"type":"VEC2","componentType":5126,"count":7468,"bufferView":0,"byteOffset":24},{"type":"SCALAR","componentType":5125,"count":16320,"bufferView":1,"byteOffset":0}],"bufferViews":[{"buffer":0,"byteOffset":0,"byteLength":238976,"byteStride":32,"target":34962},{"buffer":0,"byteOffset":238976,"byteLength":65280,"target":34963}],"samplers":[{"magFilter":9729,"minFilter":9987,"wrapS":10497,"wrapT":10497}],"textures":[{"source":0,"sampler":0},{"source":1,"sampler":0},{"source":2,"sampler":0},{"source":3,"sampler":0}],"images":[{"mimeType":"image/png","uri":"baseColor_1.png"},{"mimeType":"image/png","uri":"metallicRoughness_1.png"},{"mimeType":"image/png","uri":"clearcoat_1.png"},{"mimeType":"image/png","uri":"specular_1.png"}],"buffers":[{"uri":"realistics_grass_03.bin","byteLength":304256}],"materials":[{"name":"Material","alphaMode":"MASK","alphaCutoff":0.6913036321277359,"doubleSided":true,"pbrMetallicRoughness":{"metallicFactor":0.9545607588399316,"baseColorTexture":{"index":0},"metallicRoughnessTexture":{"index":1}},"extensions":{"KHR_materials_clearcoat":{"clearcoatFactor":1,"clearcoatRoughnessFactor":1,"clearcoatTexture":{"index":2},"clearcoatRoughnessTexture":{"index":1}},"KHR_materials_specular":{"specularTexture":{"index":3}}}}],"meshes":[{"name":"Object_0","primitives":[{"attributes":{"NORMAL":1,"POSITION":0,"TEXCOORD_0":2},"mode":4,"material":0,"indices":3}]}],"nodes":[{"name":"Sketchfab_model","rotation":[-0.7071067811865475,0,0,0.7071067811865476],"children":[1]},{"name":"sketchfab grass 03.obj.cleaner.materialmerger.gles","children":[2]},{"name":"Object_2","mesh":0}],"scenes":[{"name":"Sketchfab_Scene","nodes":[0]}],"scene":0,"extensionsUsed":["KHR_materials_clearcoat","KHR_materials_specular"]}